# xmcd
#
# Track frame offsets: 
#        150
#        27824
#        44462
#        58791
#        71914
#        87447
#        98555
#        115700
#        131812
#        145560
#        160613
#        176902
#        189478
#        206883
#
# Disc length: 2964 seconds
#
# Revision: 0
# Processed by: cddbd v1.5.2PL0 Copyright (c) Steve Scherf et al.
# Submitted via: ExactAudioCopyFreeDBPlugin 1.0
#
DISCID=c70b920e
DTITLE=Clive John - A Brand New Beginning
DYEAR=2018
DGENRE=Country
TTITLE0=Bad Man
TTITLE1=Big Things Are Happening Today
TTITLE2=A Brand New Beginning
TTITLE3=End Of The Line
TTITLE4=Good And Bad Things In Life
TTITLE5=If You Try
TTITLE6=Rolling Stone
TTITLE7=Run Baby Run
TTITLE8=Same Old Story
TTITLE9=September
TTITLE10=The Consequence
TTITLE11=Get Myself Together
TTITLE12=There For You
TTITLE13=These Hills
EXTD=
EXTT0=
EXTT1=
EXTT2=
EXTT3=
EXTT4=
EXTT5=
EXTT6=
EXTT7=
EXTT8=
EXTT9=
EXTT10=
EXTT11=
EXTT12=
EXTT13=
PLAYORDER=
